<svg xmlns="http://www.w3.org/2000/svg" viewBox="0 0 472 472">
    <path d="M95.5 244c-26.333 0-48.833 9.667-67.5 29S0 315.5 0 342.5s9.333 50 28 69S69.167 440 95.5 440s48.833-9.5 67.5-28.5 28-42 28-69-9.333-50.167-28-69.5-41.167-29-67.5-29zm55 154.5c-15 15.667-33.167 23.5-54.5 23.5s-39.667-7.833-55-23.5S18 364 18 342s7.667-40.833 23-56.5S74.667 262 96 262s39.5 7.833 54.5 23.5S173 320 173 342s-7.5 40.833-22.5 56.5zM444 274c-18.667-19.333-41.167-29-67.5-29s-48.833 9.667-67.5 29-28 42.5-28 69.5 9.333 50 28 69 41.167 28.5 67.5 28.5 48.833-9.5 67.5-28.5 28-42 28-69-9.333-50.167-28-69.5zm-13 125.5c-15.333 15.667-33.666 23.5-55 23.5-21.333 0-39.5-7.833-54.5-23.5S299 365 299 343s7.5-40.833 22.5-56.5S354.667 263 376 263s39.667 7.833 55 23.5 23 34.5 23 56.5-7.667 40.833-23 56.5zM281 105c10 0 18.5-3.667 25.5-11S317 78 317 68s-3.5-18.667-10.5-26S291 31 281 31s-18.5 3.667-25.5 11S245 58 245 68s3.5 18.667 10.5 26 15.5 11 25.5 11z"/>
    <path d="M349 195c6 0 10.333-2.5 13-7.5s2.667-10 0-15-7-7.5-13-7.5h-58l-38-63-3-4c-1.333-2-4-4.167-8-6.5s-8.333-3.5-13-3.5h-4c-2-.667-5-.167-9 1.5s-7.333 4.167-10 7.5l-76 78c-4.667 5.333-7 12-7 20 0 12 5 21 15 27l78 44v83c0 6 1.833 11 5.5 15s8.5 6 14.5 6 10.833-2 14.5-6 5.5-9 5.5-15V246l1-5c0-2.667-1.333-6.167-4-10.5s-6.667-7.833-12-10.5l-45-24 49-48 23 37c4 6.667 9 10 15 10h66z"/>
</svg>
